<?xml version="1.0" standalone="no"?><!DOCTYPE svg PUBLIC "-//W3C//DTD SVG 1.1//EN" "http://www.w3.org/Graphics/SVG/1.1/DTD/svg11.dtd"><svg t="1677586763540" class="icon" viewBox="0 0 1024 1024" version="1.1" xmlns="http://www.w3.org/2000/svg" p-id="4486" xmlns:xlink="http://www.w3.org/1999/xlink" width="200" height="200"><path d="M672.98 425.4L526.69 586.45V259.24h-27.8v327.21L352.61 425.4l-20.58 18.7 180.76 199.01L693.56 444.1l-20.58-18.7z" p-id="4487"></path><path d="M831.85 179.3H193.74a52.19 52.19 0 0 0-52.13 52.13v638.11a52.19 52.19 0 0 0 52.13 52.13h638.11A52.19 52.19 0 0 0 884 869.54V231.43a52.19 52.19 0 0 0-52.15-52.13zM206.08 866.06a8.7 8.7 0 0 1-8.69-8.69V650.23h109.83V786h411.32V650.23h109.83v207.15a8.7 8.7 0 0 1-8.69 8.69z m456.86-271.44v135.72H362.82V594.62H197.21V234.91h631.16v359.71z" p-id="4488"></path></svg>