<?xml version="1.0" standalone="no"?><!DOCTYPE svg PUBLIC "-//W3C//DTD SVG 1.1//EN" "http://www.w3.org/Graphics/SVG/1.1/DTD/svg11.dtd"><svg t="1678014513203" class="icon" viewBox="0 0 1024 1024" version="1.1" xmlns="http://www.w3.org/2000/svg" p-id="4844" xmlns:xlink="http://www.w3.org/1999/xlink" width="200" height="200"><path d="M329.036874 357.944639l329.395023 0c15.246927 0 27.62866-12.381733 27.62866-27.62866s-12.381733-27.62866-27.62866-27.62866L329.036874 302.687319c-15.246927 0-27.62866 12.381733-27.62866 27.62866S313.687619 357.944639 329.036874 357.944639z" p-id="4845"></path><path d="M329.036874 475.622264l278.640152 0c15.246927 0 27.62866-12.381733 27.62866-27.62866s-12.381733-27.62866-27.62866-27.62866L329.036874 420.364945c-15.246927 0-27.62866 12.381733-27.62866 27.62866S313.687619 475.622264 329.036874 475.622264z" p-id="4846"></path><path d="M658.431898 588.2858c15.246927 0 27.62866-12.381733 27.62866-27.62866s-12.381733-27.62866-27.62866-27.62866L329.036874 533.02848c-15.246927 0-27.62866 12.381733-27.62866 27.62866s12.381733 27.62866 27.62866 27.62866L658.431898 588.2858z" p-id="4847"></path><path d="M811.822125 127.398821 201.331068 127.398821c-15.246927 0-27.62866 12.381733-27.62866 27.62866l0 713.126412c0 15.246927 12.381733 27.62866 27.62866 27.62866L625.072849 895.782552c6.651344 0 12.995703-2.353553 18.009793-6.753672l186.749276-160.348556c6.037374-5.218747 9.618867-12.893375 9.618867-20.874988L839.450784 155.027481C839.450784 139.780554 827.069052 127.398821 811.822125 127.398821zM229.983012 184.702708l553.187169 0 0 480.841011L611.770161 665.543719c-15.246927 0-27.62866 12.381733-27.62866 27.62866l0 146.329569L229.983012 839.501949 229.983012 184.702708zM639.398821 819.240931l0-97.31428 112.868192 0L639.398821 819.240931z" p-id="4848"></path></svg>