<?xml version="1.0" standalone="no"?><!DOCTYPE svg PUBLIC "-//W3C//DTD SVG 1.1//EN" "http://www.w3.org/Graphics/SVG/1.1/DTD/svg11.dtd"><svg t="1545363603724" class="icon" style="" viewBox="0 0 1024 1024" version="1.1" xmlns="http://www.w3.org/2000/svg" p-id="14810" xmlns:xlink="http://www.w3.org/1999/xlink" width="200" height="200"><defs><style type="text/css"></style></defs><path d="M161.874249 287.916409c0-7.741311 6.263657-14.004969 14.004969-14.004969l628.938316 0c31.593556 0 57.30617 23.619954 57.30617 55.226812L862.123704 588.127841l74.127278-74.121138c5.471618-5.470595 14.33345-5.470595 19.804045 0 5.471618 5.470595 5.471618 14.33345 0 19.789719l-98.020454 98.041944c-2.530636 2.543939-6.03239 4.103458-9.915837 4.103458-3.883447 0-7.385201-1.558495-9.92914-4.103458l-98.007151-98.041944c-5.470595-5.456269-5.470595-14.319124 0-19.789719 5.471618-5.470595 14.33345-5.470595 19.805068 0l74.127278 74.121138L834.11479 329.138252c0-16.166191-13.143345-27.216875-29.296233-27.216875L175.880241 301.921377C168.13893 301.921377 161.874249 295.65772 161.874249 287.916409zM87.746972 505.800811l74.127278-74.128301 0 259.002892c0 31.592532 25.711592 59.412135 57.305147 59.412135l628.938316 0c7.741311 0 14.005992-6.263657 14.005992-14.004969s-6.263657-14.004969-14.005992-14.004969L219.18042 722.077599c-16.151865 0-29.29521-15.236006-29.29521-31.403221L189.88521 431.67251l74.128301 74.128301c2.735297 2.735297 6.317892 4.103458 9.901511 4.103458 3.582595 0 7.166213-1.36816 9.901511-4.103458 5.470595-5.470595 5.470595-14.33345 0-19.804045l-98.021477-98.021477c-2.530636-2.543939-6.031367-4.116761-9.915837-4.116761s-7.385201 1.572822-9.92914 4.116761l-98.007151 98.021477c-5.470595 5.470595-5.470595 14.33345 0 19.804045C73.413522 511.258103 82.276377 511.258103 87.746972 505.800811z" p-id="14811"></path></svg>