<?xml version="1.0" standalone="no"?><!DOCTYPE svg PUBLIC "-//W3C//DTD SVG 1.1//EN" "http://www.w3.org/Graphics/SVG/1.1/DTD/svg11.dtd"><svg t="1677587000733" class="icon" viewBox="0 0 1024 1024" version="1.1" xmlns="http://www.w3.org/2000/svg" p-id="9734" xmlns:xlink="http://www.w3.org/1999/xlink" width="200" height="200"><path d="M0 0h1024v1024H0z" fill="#FFFFFF" p-id="9735"></path><path d="M938.752 512a384 384 0 0 1-384 384 379.306667 379.306667 0 0 1-220.16-69.546667 21.76 21.76 0 0 1-8.96-15.786666 21.333333 21.333333 0 0 1 5.973333-16.64l30.72-31.146667a21.333333 21.333333 0 0 1 26.88-2.56 294.826667 294.826667 0 0 0 165.546667 50.346667 298.666667 298.666667 0 1 0-298.666667-298.666667h100.693334a20.906667 20.906667 0 0 1 15.36 6.4l8.533333 8.533333a21.333333 21.333333 0 0 1 0 30.293334L229.973333 708.266667a21.76 21.76 0 0 1-30.293333 0l-150.613333-151.04a21.333333 21.333333 0 0 1 0-30.293334l8.533333-8.533333a20.906667 20.906667 0 0 1 15.36-6.4h97.792a384 384 0 0 1 768 0z" p-id="9736"></path></svg>