<?xml version="1.0" standalone="no"?><!DOCTYPE svg PUBLIC "-//W3C//DTD SVG 1.1//EN" "http://www.w3.org/Graphics/SVG/1.1/DTD/svg11.dtd"><svg t="1545363594868" class="icon" style="" viewBox="0 0 1024 1024" version="1.1" xmlns="http://www.w3.org/2000/svg" p-id="14693" xmlns:xlink="http://www.w3.org/1999/xlink" width="200" height="200"><defs><style type="text/css"></style></defs><path d="M758.86592 676.00384a20.43904 20.43904 0 0 0 28.9792 0l51.712-51.65056a20.41856 20.41856 0 0 0 0-28.95872l-51.712-51.67104a20.48 20.48 0 1 0-28.9792 28.95872l16.73216 16.71168H634.2656l-38.44096-38.37952a20.43904 20.43904 0 0 0-28.95872 0.04096 20.45952 20.45952 0 0 0 0.02048 28.95872l44.4416 44.35968a20.48 20.48 0 0 0 14.47936 5.98016h149.79072l-16.71168 16.6912a20.48 20.48 0 0 0-0.02048 28.95872zM210.67776 405.99552h182.08768l39.30112 39.19872a20.48 20.48 0 1 0 28.91776-28.99968l-45.28128-45.17888a20.48 20.48 0 0 0-14.45888-5.98016h-190.54592a20.48 20.48 0 0 0-0.02048 40.96z" fill="" p-id="14694"></path><path d="M210.67776 630.33344h192.59392a20.48 20.48 0 0 0 14.47936-6.00064l218.58304-218.33728h139.24352l-16.71168 16.67072a20.50048 20.50048 0 0 0 28.95872 28.9792l51.712-51.63008a20.48 20.48 0 0 0 0-28.9792l-51.712-51.67104a20.48 20.48 0 1 0-28.9792 28.95872l16.73216 16.71168h-147.74272a20.48 20.48 0 0 0-14.47936 6.00064L394.79296 589.37344h-184.1152a20.48 20.48 0 1 0 0 40.96z" fill="" p-id="14695"></path></svg>