<?xml version="1.0" standalone="no"?><!DOCTYPE svg PUBLIC "-//W3C//DTD SVG 1.1//EN" "http://www.w3.org/Graphics/SVG/1.1/DTD/svg11.dtd"><svg t="1550822462292" class="icon" style="" viewBox="0 0 1024 1024" version="1.1" xmlns="http://www.w3.org/2000/svg" p-id="1120" xmlns:xlink="http://www.w3.org/1999/xlink" width="200" height="200"><defs><style type="text/css"></style></defs><path d="M520.69035719 765.1066537c22.81218768-22.81218768 44.53808069-44.53808069 66.26397373-66.26397373 7.60406256-7.60406256 17.38071443-11.94924116 27.15736629-11.94924116h169.46196555c14.12183047 0 26.07107163-11.94924116 26.07107162-26.07107162v-379.11683321c0-14.12183047-11.94924116-26.07107163-26.07107162-26.07107163h-545.31991481c-14.12183047 0-26.07107163 11.94924116-26.07107163 26.07107163v379.11683321c0 14.12183047 11.94924116 26.07107163 26.07107163 26.07107162h169.46196555c10.86294651 0 19.55330372 4.34517861 27.15736628 11.94924117 22.81218768 22.81218768 44.53808069 44.53808069 67.35026836 66.26397372 5.43147326 4.34517861 14.12183047 4.34517861 18.46700905-1e-8v0zM606.50763463 716.22339439l-67.35026836 67.35026837c-15.20812511 15.20812511-40.19290209 15.20812511-55.4010272 0l-67.35026836-67.35026837c-2.1725893-2.1725893-5.43147326-4.34517861-8.69035721-4.3451786h-169.46196555c-28.24366093 0-52.14214326-23.89848233-52.14214326-52.14214325v-380.20312786c0-28.24366093 23.89848233-52.14214326 52.14214326-52.14214325h547.4925041c28.24366093 0 52.14214326 23.89848233 52.14214326 52.14214325v380.20312786c0 28.24366093-23.89848233 52.14214326-52.14214326 52.14214325h-169.46196555c-4.34517861 1.08629466-7.60406256 2.1725893-9.77665187 4.3451786z" p-id="1121"></path><path d="M370.44222828 516.07360495c23.42322842 0 42.77285189-19.34962348 42.77285189-42.77285188s-19.34962348-42.77285189-42.77285188-42.7728519c-23.42322842 0-42.77285189 19.34962348-42.77285188 42.7728519 0 23.42322842 19.34962348 42.77285189 42.77285188 42.77285188v0zM370.44222828 454.96953082c10.18401235 0 18.33122224 8.14720987 18.33122224 18.33122225s-8.14720987 18.33122224-18.33122223 18.33122222c-10.18401235 0-18.33122224-8.14720987-18.33122224-18.33122222s8.14720987-18.33122224 18.33122224-18.33122225z" p-id="1122"></path><path d="M653.55777172 516.07360495c23.42322842 0 42.77285189-19.34962348 42.77285187-42.77285188s-19.34962348-42.77285189-42.77285188-42.7728519c-23.42322842 0-42.77285189 19.34962348-42.77285188 42.7728519-1.01840124 23.42322842 18.33122224 42.77285189 42.77285188 42.77285188v0zM653.55777172 454.96953082c10.18401235 0 18.33122224 8.14720987 18.33122223 18.33122225s-8.14720987 18.33122224-18.33122224 18.33122222-18.33122224-8.14720987-18.33122223-18.33122222 8.14720987-18.33122224 18.33122223-18.33122225z" p-id="1123"></path><path d="M512 516.07360495c23.42322842 0 42.77285189-19.34962348 42.77285189-42.77285188s-19.34962348-42.77285189-42.77285189-42.7728519c-23.42322842 0-42.77285189 19.34962348-42.77285189 42.7728519 0 23.42322842 19.34962348 42.77285189 42.77285189 42.77285188v0zM512 454.96953082c10.18401235 0 18.33122224 8.14720987 18.33122224 18.33122225s-8.14720987 18.33122224-18.33122224 18.33122222-18.33122224-8.14720987-18.33122224-18.33122222 8.14720987-18.33122224 18.33122224-18.33122225z" p-id="1124"></path></svg>