<?xml version="1.0" standalone="no"?><!DOCTYPE svg PUBLIC "-//W3C//DTD SVG 1.1//EN" "http://www.w3.org/Graphics/SVG/1.1/DTD/svg11.dtd"><svg t="1548228369548" class="icon" style="" viewBox="0 0 1024 1024" version="1.1" xmlns="http://www.w3.org/2000/svg" p-id="5523" xmlns:xlink="http://www.w3.org/1999/xlink" width="200" height="200"><defs><style type="text/css"></style></defs><path d="M295.424 831.36512h450.56a20.48 20.48 0 0 0 20.48-20.48v-350.4128a20.48 20.48 0 0 0-20.48-20.48h-9.70752v-51.36384c-1.26976-117.248-97.95584-212.62336-215.552-212.62336-117.94432 0-214.6304 95.66208-215.57248 213.4016v50.5856h-9.70752a20.48 20.48 0 0 0-20.48 20.48v350.4128a20.43904 20.43904 0 0 0 20.45952 20.48z m430.08-40.96h-409.6v-309.4528h409.6v309.4528zM346.09152 389.57056c0.75776-95.17056 79.07328-172.60544 174.61248-172.60544 95.25248 0 173.58848 77.2096 174.592 172.01152v51.01568H346.07104l0.02048-50.42176z" fill="" p-id="5524"></path><path d="M476.01664 721.69472a20.48 20.48 0 0 0 20.48 20.48h48.37376a20.48 20.48 0 0 0 20.48-20.48v-66.17088a70.73792 70.73792 0 0 0 26.64448-55.1936 71.33184 71.33184 0 0 0-142.62272 0c0 21.62688 9.95328 41.82016 26.64448 55.1936v66.17088z m44.68736-151.552a30.3104 30.3104 0 0 1 30.35136 30.208c0 10.87488-6.10304 20.97152-15.95392 26.3168a20.48 20.48 0 0 0-10.69056 17.98144v56.56576h-7.41376v-56.56576c0-7.49568-4.096-14.41792-10.69056-17.98144a30.1056 30.1056 0 0 1-15.95392-26.3168 30.28992 30.28992 0 0 1 30.35136-30.208z" fill="" p-id="5525"></path></svg>