<?xml version="1.0" standalone="no"?><!DOCTYPE svg PUBLIC "-//W3C//DTD SVG 1.1//EN" "http://www.w3.org/Graphics/SVG/1.1/DTD/svg11.dtd"><svg t="1550761822836" class="icon" style="" viewBox="0 0 1024 1024" version="1.1" xmlns="http://www.w3.org/2000/svg" p-id="2552" xmlns:xlink="http://www.w3.org/1999/xlink" width="200" height="200"><defs><style type="text/css"></style></defs><path d="M925.089 890.642l-236.99-236.989c49.288-58.608 79.029-134.173 79.029-216.564 0-185.8-151.159-336.959-336.959-336.959s-336.96 151.159-336.96 336.959c0 185.799 151.159 336.959 336.959 336.959 89.424 0 170.815-35.027 231.202-92.068l236.191 236.191c3.802 3.8 8.782 5.7 13.763 5.7s9.963-1.9 13.763-5.7c7.602-7.602 7.602-19.927 0.001-27.529zM430.169 735.117c-164.333 0-298.029-133.695-298.029-298.029 0-164.333 133.696-298.029 298.029-298.029s298.029 133.696 298.029 298.029c0 164.334-133.696 298.029-298.029 298.029z" p-id="2553"></path></svg>